<?xml version="1.0" encoding="UTF-8"?>
<svg width="24px" height="24px" viewBox="0 0 24 24" version="1.1" xmlns="http://www.w3.org/2000/svg" xmlns:xlink="http://www.w3.org/1999/xlink">
    <!-- Generator: Sketch 51.2 (57519) - http://www.bohemiancoding.com/sketch -->
    <title>Icons/plus/black</title>
    <desc>Created with Sketch.</desc>
    <defs></defs>
    <g id="Icons/plus/black" stroke="none" stroke-width="1" fill="none" fill-rule="evenodd">
        <rect id="bounds" fill-opacity="0.338428442" fill="#1C8FF8" opacity="0" x="0" y="0" width="24" height="24"></rect>
        <g id="+" transform="translate(0.960000, 0.000000)" fill="#000000" fill-rule="nonzero">
            <path d="M3.99862306,19.0413769 C4.10437177,19.1471256 4.23655766,19.2 4.38196213,19.2 C4.52736661,19.2 4.6595525,19.1471256 4.7653012,19.0413769 L11.52,12.2866781 L18.2746988,19.0413769 C18.3804475,19.1471256 18.5126334,19.2 18.6580379,19.2 C18.7902238,19.2 18.9356282,19.1471256 19.0413769,19.0413769 C19.2528744,18.8298795 19.2528744,18.4861962 19.0413769,18.2746988 L12.2866781,11.52 L19.0413769,4.7653012 C19.2528744,4.55380379 19.2528744,4.21012048 19.0413769,3.99862306 C18.8298795,3.78712565 18.4861962,3.78712565 18.2746988,3.99862306 L11.52,10.7533219 L4.7653012,3.99862306 C4.55380379,3.78712565 4.21012048,3.78712565 3.99862306,3.99862306 C3.78712565,4.21012048 3.78712565,4.55380379 3.99862306,4.7653012 L10.7533219,11.52 L3.99862306,18.2746988 C3.78712565,18.4861962 3.78712565,18.8298795 3.99862306,19.0413769 Z" id="Shape" transform="translate(11.520000, 11.520000) rotate(45.000000) translate(-11.520000, -11.520000) "></path>
        </g>
    </g>
</svg>